<svg xmlns="http://www.w3.org/2000/svg" xmlns:xlink="http://www.w3.org/1999/xlink" width="640" height="25">
    <svg width="25" height="25" fill="#4267b2" id="icon-facebook">
        <path d="M14.844 4.688h3.906V0h-3.906a5.475 5.475 0 0 0-5.469 5.469v2.344H6.25v4.688h3.125v12.5h4.688v-12.5h3.906l.781-4.688h-4.688V5.469c0-.423.358-.781.781-.781z"/>
    </svg>
    <svg width="25" height="25" x="41" fill="#cc0000" id="icon-instagram">
        <path d="M12.5 2.251c3.34 0 3.735.015 5.049.073 1.221.054 1.88.259 2.319.43a3.872 3.872 0 0 1 1.436.933c.439.439.708.854.938 1.436.171.439.376 1.104.43 2.319.059 1.318.073 1.714.073 5.049s-.015 3.735-.073 5.049c-.054 1.221-.259 1.88-.43 2.319a3.872 3.872 0 0 1-.933 1.436 3.92 3.92 0 0 1-1.436.938c-.439.171-1.104.376-2.319.43-1.318.059-1.714.073-5.049.073s-3.735-.015-5.049-.073c-1.221-.054-1.88-.259-2.319-.43a3.872 3.872 0 0 1-1.436-.933 3.92 3.92 0 0 1-.938-1.436c-.171-.439-.376-1.104-.43-2.319-.059-1.318-.073-1.714-.073-5.049s.015-3.735.073-5.049c.054-1.221.259-1.88.43-2.319a3.872 3.872 0 0 1 .933-1.436 3.92 3.92 0 0 1 1.436-.938c.439-.171 1.104-.376 2.319-.43 1.313-.059 1.709-.073 5.049-.073zM12.5 0C9.106 0 8.682.015 7.349.073 6.021.132 5.108.346 4.317.654A6.107 6.107 0 0 0 2.1 2.099 6.123 6.123 0 0 0 .655 4.311C.347 5.107.133 6.015.074 7.343.015 8.681.001 9.106.001 12.499s.015 3.818.073 5.151c.059 1.328.273 2.241.581 3.032A6.107 6.107 0 0 0 2.1 22.899a6.108 6.108 0 0 0 2.212 1.44c.796.308 1.704.522 3.032.581 1.333.059 1.758.073 5.151.073s3.818-.015 5.151-.073c1.328-.059 2.241-.273 3.032-.581.82-.317 1.519-.747 2.212-1.44s1.123-1.392 1.44-2.212c.308-.796.522-1.704.581-3.032.059-1.333.073-1.758.073-5.151s-.015-3.818-.073-5.151c-.059-1.328-.273-2.241-.581-3.032a5.858 5.858 0 0 0-1.431-2.222 6.108 6.108 0 0 0-2.212-1.44c-.796-.308-1.704-.522-3.032-.581C16.317.015 15.892 0 12.499 0z"/>
        <path d="M12.5 6.079c-3.545 0-6.421 2.876-6.421 6.421s2.876 6.421 6.421 6.421 6.421-2.876 6.421-6.421A6.423 6.423 0 0 0 12.5 6.079zm0 10.586a4.165 4.165 0 1 1 0-8.33 4.165 4.165 0 0 1 0 8.33zM20.674 5.825a1.499 1.499 0 1 1-2.998 0 1.499 1.499 0 0 1 2.998 0z"/>
    </svg>
    <svg width="25" height="25" x="82" fill="#2222" id="icon-github">
        <path d="M12.5.309C5.597.309 0 5.905 0 12.809c0 5.523 3.582 10.208 8.548 11.861.625.116.854-.271.854-.601 0-.298-.012-1.283-.017-2.327-3.478.756-4.212-1.475-4.212-1.475-.568-1.445-1.388-1.829-1.388-1.829-1.134-.776.086-.76.086-.76 1.255.088 1.916 1.288 1.916 1.288 1.115 1.911 2.924 1.358 3.638 1.039.112-.808.436-1.359.794-1.671-2.777-.316-5.695-1.388-5.695-6.178 0-1.365.488-2.48 1.288-3.355-.13-.315-.558-1.586.121-3.308 0 0 1.05-.336 3.438 1.281a11.988 11.988 0 0 1 3.129-.421 12.02 12.02 0 0 1 3.131.421c2.386-1.617 3.434-1.281 3.434-1.281.68 1.722.253 2.993.123 3.308.801.875 1.286 1.991 1.286 3.355 0 4.801-2.924 5.858-5.708 6.168.448.388.848 1.149.848 2.315 0 1.673-.015 3.019-.015 3.43 0 .333.225.723.859.6 4.964-1.655 8.541-6.339 8.541-11.86 0-6.904-5.597-12.5-12.5-12.5z"/>
    </svg>
    <svg width="25" height="25" x="123" fill="#0077B5" id="icon-linkedin">
        <path d="M22.656 0H2.343A2.351 2.351 0 0 0-.001 2.344v20.313a2.351 2.351 0 0 0 2.344 2.344h20.313A2.351 2.351 0 0 0 25 22.657V2.344A2.351 2.351 0 0 0 22.656 0zM9.375 20.313H6.25V9.375h3.125v10.938zm-1.562-12.5c-.864 0-1.563-.698-1.563-1.563s.698-1.563 1.563-1.563c.864 0 1.563.698 1.563 1.563s-.698 1.563-1.563 1.563zm12.5 12.5h-3.125v-6.25c0-.864-.698-1.563-1.563-1.563s-1.563.698-1.563 1.563v6.25h-3.125V9.375h3.125v1.938c.645-.884 1.631-1.938 2.734-1.938 1.943 0 3.516 1.748 3.516 3.906v7.031z"/>
    </svg>
</svg>
